<?xml version="1.0" encoding="UTF-8" standalone="no"?>
<!-- Created with Inkscape (http://www.inkscape.org/) -->

<svg
   width="210mm"
   height="297mm"
   viewBox="0 0 210 297"
   version="1.1"
   id="svg1"
   sodipodi:docname="card-print.svg"
   inkscape:version="1.4.2 (ebf0e940d0, 2025-05-08)"
   xmlns:inkscape="http://www.inkscape.org/namespaces/inkscape"
   xmlns:sodipodi="http://sodipodi.sourceforge.net/DTD/sodipodi-0.dtd"
   xmlns="http://www.w3.org/2000/svg"
   xmlns:svg="http://www.w3.org/2000/svg">
  <sodipodi:namedview
     id="namedview1"
     pagecolor="#ffffff"
     bordercolor="#000000"
     borderopacity="0.25"
     inkscape:showpageshadow="2"
     inkscape:pageopacity="0.0"
     inkscape:pagecheckerboard="0"
     inkscape:deskcolor="#d1d1d1"
     inkscape:document-units="mm"
     showgrid="true"
     inkscape:zoom="0.89145177"
     inkscape:cx="260.24964"
     inkscape:cy="286.61113"
     inkscape:window-width="1280"
     inkscape:window-height="730"
     inkscape:window-x="0"
     inkscape:window-y="0"
     inkscape:window-maximized="1"
     inkscape:current-layer="g617">
    <inkscape:grid
       id="grid1"
       units="mm"
       originx="0"
       originy="0"
       spacingx="0.99999998"
       spacingy="1"
       empcolor="#0099e5"
       empopacity="0.30196078"
       color="#0099e5"
       opacity="0.14901961"
       empspacing="5"
       enabled="true"
       visible="true" />
  </sodipodi:namedview>
  <defs
     id="defs1" />
  <g
     inkscape:groupmode="layer"
     id="layer5"
     inkscape:label="holder"
     style="display:inline"
     transform="translate(85.062881,66.462849)">
    <path
       id="rect719"
       style="fill:none;fill-opacity:1;stroke:#000000;stroke-width:0.508427;stroke-dasharray:none;stroke-opacity:1"
       d="M 4.9373331,28.536928 -0.06287848,33.53714 V 46.53738 L 4.9373331,51.537075 H 68.937044 L 73.937256,46.53738 V 33.53714 l -5.000212,-5.000212 z" />
    <path
       id="path720-0"
       style="display:inline;fill:none;fill-opacity:1;stroke:#000000;stroke-width:0.5;stroke-dasharray:none;stroke-opacity:1"
       d="m 58.93712,40.537147 h 14.999999 v 0 0 m -73.99999748,0 H 14.937121 v 0 0" />
    <path
       id="path720-0-0"
       style="display:inline;fill:none;fill-opacity:1;stroke:#000000;stroke-width:0.5;stroke-dasharray:none;stroke-opacity:1"
       d="m 58.93712,33.537148 h 14.999999 v 0 0 m -73.99999709,0 H 14.937121 v 0 0" />
    <path
       id="path720-0-4"
       style="display:inline;fill:none;fill-opacity:1;stroke:#000000;stroke-width:0.5;stroke-dasharray:none;stroke-opacity:1"
       d="m 58.93712,46.537147 h 14.999999 v 0 0 m -73.99999709,0 H 14.937121 v 0 0" />
  </g>
  <g
     inkscape:label="pop 1"
     inkscape:groupmode="layer"
     id="layer1"
     transform="translate(-42.291286,-4.8736146)">
    <path
       id="path688"
       style="display:inline;fill:none;stroke:#00ff00;stroke-width:0.5;stroke-dasharray:none;stroke-opacity:1"
       inkscape:label="fill2"
       d="m 175.24143,26.22184 c 0.11846,0.235044 0.24775,0.464948 0.3878,0.688754 1.37862,2.345601 3.93571,3.947771 6.6256,4.227671 l -0.0228,0.02023 0.18648,-8.89e-4 c 0.52037,0.04344 1.04304,0.05468 1.56442,-0.0076 l 3.12187,-0.01525 c 0.26939,0.0095 0.53902,0.0081 0.80815,-0.0039 3.33907,-0.149134 6.60535,-1.929274 8.49779,-4.689917 m -61.73693,0 c 0.19696,0.22971 0.32968,0.446819 0.28822,0.623032 -0.89152,0.497541 -2.08478,-0.0093 -2.88872,0.607505 -0.47801,0.550799 -0.37906,1.420716 -0.27846,2.105284 0.1244,0.796234 0.67542,1.581047 1.47709,1.78547 0.92432,-0.462663 1.22691,-1.601232 1.97279,-2.280307 0.37594,-0.422747 0.46313,-0.364487 0.1688,0.101189 -0.41553,0.785096 -0.97574,1.623948 -0.67522,2.552558 0.21506,0.71393 1.75886,1.04322 0.58771,1.716938 -0.33253,0.25671 -1.88559,1.200679 -0.82003,0.598975 1.66466,-0.938015 3.43706,-1.682946 5.08566,-2.642179 1.0142,-0.664073 1.94405,-1.482583 3.03488,-2.013761 0.56217,-0.140037 1.71331,-0.863428 1.8908,-0.622449 -0.46143,1.012441 -0.71023,2.210691 -1.61146,2.941294 0.17842,-0.111225 1.22476,-0.907815 1.69485,-1.335227 0.75862,-0.749752 1.23597,-1.739236 1.8453,-2.594904 0.50079,-0.459708 0.91564,-0.988446 1.29698,-1.543418" />
    <path
       id="path644"
       style="display:inline;fill:#ff0000;stroke-width:0.277116"
       inkscape:label="fill"
       d="m 181.85658,9.5592779 c -0.35123,0.138433 -0.69069,0.2961 -1.01751,0.4718061 0.31636,0.341695 1.78561,0.556528 1.98127,-0.3172931 0.0424,-0.04837 0.0828,-0.09747 0.12144,-0.147795 -0.36256,-0.01207 -0.72456,-0.01435 -1.0852,-0.0067 z m 2.13837,0.5663741 c -0.56274,0.02696 -1.1464,0.246046 -1.57148,0.569991 -1.09066,0.692022 -2.31746,1.898727 -1.7694,3.312977 0.42067,1.198774 1.05932,3.328799 -0.80874,3.554821 -1.45896,-0.328342 -3.5679,0.395458 -3.67368,2.100131 0.0541,1.877361 2.28764,1.559451 3.46439,2.29185 0.29723,1.372796 -2.26876,1.312922 -2.8236,0.227892 -1.06907,-1.491563 -0.94549,-3.413059 -1.5074,-5.104081 -0.12702,0.38579 -0.23816,0.775421 -0.33331,1.16737 0.19633,1.300788 -0.13123,2.63759 -0.44287,3.885034 0.49404,1.854081 3.07111,1.294175 4.41058,2.164727 1.62,0.04871 3.27986,-2.062889 2.19418,-3.502112 -0.68336,-0.935959 -3.19792,-0.355647 -3.01118,-1.717726 1.10966,-0.492563 2.51931,0.130501 3.50779,-0.836124 1.07638,-0.706023 1.261,-2.27326 0.43564,-3.242696 -0.83306,-1.569765 0.70269,-3.205296 2.25464,-3.358968 -0.0561,0.583051 -0.95172,2.220403 -0.83974,3.345532 -0.20658,1.151997 0.33079,2.579846 -0.76326,3.372405 -0.93861,1.050773 -1.78246,2.797403 -0.67438,4.032311 1.47433,0.936415 -0.0163,2.118395 -1.26349,1.840715 -1.42111,1.290953 -3.47278,-0.667652 -4.82865,0.825789 -0.37122,0.635147 -0.4135,1.384163 -0.20102,2.053622 0.34943,0.556929 0.76606,1.069256 1.23507,1.529105 0.0972,0.05306 0.19865,0.100146 0.30437,0.140043 1.01624,0.749742 2.64653,0.04395 3.43597,0.845943 -0.26148,0.205177 -0.78347,0.487405 -1.15859,0.778765 0.67388,0.305431 1.38463,0.527561 2.11047,0.65474 0.79431,-0.734288 1.09574,-2.077643 0.17518,-2.881994 0.32128,-0.768667 1.92541,0.601437 1.45521,1.618504 0.0313,0.474775 -0.15659,0.943176 -0.35398,1.395264 0.34305,0.0109 0.68644,0.0017 1.02939,-0.03927 l 3.12178,-0.0155 c 0.26939,0.0095 0.53909,0.0084 0.80821,-0.0036 2.21021,-0.09871 4.38867,-0.912266 6.15777,-2.251542 -0.97052,-0.498983 -1.85873,-1.21204 -2.72852,-1.83503 1.24936,0.07652 3.20538,0.670938 3.92844,-0.655774 -0.0427,0.404178 0.0317,0.83211 0.17209,1.256254 0.67907,-0.726024 1.25422,-1.547538 1.69188,-2.447395 0.055,-0.107108 0.10731,-0.215228 0.15658,-0.324011 -0.40706,-0.140383 -0.82558,-0.153643 -1.10639,0.09353 -0.38608,0.252048 -0.63321,0.550014 -0.77411,0.876433 0.0203,-1.283439 -1.44422,-2.041957 -1.93218,-3.164148 -0.26984,-1.448651 1.34405,-0.428022 1.74563,0.23151 0.79727,0.961148 1.93713,0.597769 2.64583,0.02584 0.12028,-0.750234 0.13313,-1.515419 0.0517,-2.274281 -0.15625,0.103664 -0.30917,0.261439 -0.45424,0.483175 -0.53493,1.131178 -1.79954,1.31717 -2.19521,0.0098 -1.32999,-0.722704 -0.5148,-3.917563 0.66197,-1.831413 0.8637,0.974805 1.65687,0.273752 1.59112,-0.545187 -0.0614,-0.195511 -0.12856,-0.389183 -0.20154,-0.580842 -0.0969,-0.147554 -0.23069,-0.286507 -0.40618,-0.406178 -0.71005,-1.073718 -2.55669,-1.43307 -3.14503,-0.04186 -0.61963,1.233797 -0.61541,3.098428 -2.18126,3.582726 -1.19419,-0.196822 -2.19573,3.334869 -2.66598,1.150319 0.0744,-1.931478 -2.88747,-1.047589 -3.18689,-2.440679 0.69161,-1.344057 2.32692,-0.373008 3.21376,0.222725 1.12153,1.007468 2.95664,0.345619 2.97191,-1.205611 0.36463,-1.525766 0.70865,-3.315628 2.18901,-4.169254 0.11682,-0.399986 0.11757,-0.782533 0.0305,-1.138432 -1.10659,-0.977657 -2.35602,-1.780576 -3.6928,-2.412773 -1.67096,0.07944 -1.55759,2.311626 -1.54357,3.654558 -1.08271,1.516802 -2.54991,-0.64772 -1.51154,-1.802991 0.0836,-0.882384 0.72402,-1.780375 1.03302,-2.658753 -0.33721,-0.111492 -0.67777,-0.213161 -1.02113,-0.305407 -1.20858,1.478983 -1.33278,3.635949 -1.5198,5.484936 0.83327,1.872065 4.34678,1.478318 4.45295,-0.672826 -0.69754,-1.151084 -0.0469,-2.883758 1.49552,-2.084112 1.37998,0.511831 1.21265,2.217302 -0.23668,2.32699 -1.06226,1.084173 0.0158,3.190206 -1.52704,3.935677 -0.91997,-2.054184 -3.93483,-1.967063 -5.23637,-0.356568 -1.00679,1.053628 -1.03745,2.69704 -0.27027,3.89227 0.6272,1.147687 1.53535,2.720149 0.51832,3.91449 -0.79466,1.157665 0.77294,3.046241 -0.35192,3.853511 -0.42563,-0.681093 0.0897,-2.447417 -0.89969,-3.290756 -0.27313,-0.552515 -1.47218,-1.056376 -1.92598,-1.182872 1.28085,0.08591 3.20441,-0.663186 2.72852,-2.205551 -0.73135,-0.990274 -1.99487,-2.028794 -1.38286,-3.433381 0.38295,-1.154045 1.29034,-2.070677 1.56321,-3.268535 -1.00731,-2.059472 0.99485,-3.920396 0.86558,-5.975863 -0.27371,-0.789465 -0.96268,-1.072835 -1.6862,-1.038179 z m -4.23179,0.577742 c -0.93184,0.668645 -1.74284,1.491224 -2.42982,2.415357 0.29964,0.778978 1.82022,1.800139 0.293,2.293917 -0.6185,0.08025 -0.95539,-0.360986 -1.21439,-0.866614 -0.22727,0.407206 -0.4339,0.826825 -0.62012,1.255221 0.40227,0.446163 0.93356,0.783802 1.52704,0.952913 1.31166,0.552342 3.13,-0.725927 2.57142,-2.184363 -0.78671,-0.874378 -1.37113,-1.849382 -0.28577,-2.841687 0.3197,-0.419854 0.31492,-0.743101 0.15864,-1.024744 z m 15.31431,3.952214 c 0.0994,0.238674 0.32206,0.470326 0.56534,0.638205 -0.18245,-0.219151 -0.37091,-0.431922 -0.56534,-0.638205 z m -49.98925,5.286675 c -0.35018,-0.07583 -0.69928,-0.158335 -1.04812,-0.242851 l 0.67095,1.428812 0.86472,2.90181 1.36058,1.41107 0.80405,0.136799 0.95024,-0.607252 c 0.17891,-0.280461 0.36068,-0.558323 0.55163,-0.828405 0.0729,-0.138982 0.16461,-0.281815 0.24683,-0.421247 0.0617,-0.104573 0.11804,-0.207233 0.15708,-0.304957 0.013,-0.03258 0.0241,-0.06461 0.0329,-0.09596 0.0131,-0.04705 0.0208,-0.09257 0.0218,-0.136249 0.002,-0.07278 -0.0157,-0.14043 -0.0588,-0.20106 -1e-5,-2.3e-5 -8e-5,-10e-6 -9e-5,-3.1e-5 -0.069,-0.09703 -0.20416,-0.176212 -0.43375,-0.230396 -1.15781,-0.778305 -2.2094,-1.702502 -3.37218,-2.470727 -0.23728,-0.137733 -0.48395,-0.261719 -0.74779,-0.339337 z m -6.38326,-0.532113 -2.32627,-0.309781 c -0.11035,0.01667 -0.22067,0.03299 -0.33094,0.04849 -0.13774,0.01939 -0.27545,0.03751 -0.41308,0.05369 -1.68658,0.496102 -3.38861,0.983279 -5.01275,1.667804 0.90537,-0.0935 1.8854,-0.798802 2.73692,-0.465539 0.16669,0.06753 0.2635,0.155376 0.31166,0.258574 l 2.68828,-0.987818 1.2e-4,-6.2e-5 0.53764,0.006 2.51026,0.497459 1.0929,0.990299 1.72287,2.140002 0.89822,2.154922 0.48612,2.307078 0.40397,0.442151 0.0502,-1.691587 -0.7296,-2.736913 -1.68288,-2.541485 -1.44635,-1.198574 z" />
    <path
       id="path695"
       style="display:inline;fill:none;stroke:#000000;stroke-width:0.5;stroke-dasharray:none;stroke-opacity:1"
       inkscape:label="cut"
       d="m 181.85657,9.5592789 c -3.96727,1.5636471 -6.38514,5.6146431 -7.08949,9.6717611 -0.81233,2.351204 -0.5934,5.022831 0.5886,7.209896 l -27.61279,-1e-6 c 0.51779,-0.753556 0.97369,-1.555403 1.49914,-2.298567 0.29161,-0.555937 0.88478,-1.173373 -0.0336,-1.390097 -1.15782,-0.778304 -2.20963,-1.702425 -3.37241,-2.470649 -0.23727,-0.137732 -0.48392,-0.261896 -0.74776,-0.339515 -1.86799,-0.404519 -3.70636,-0.997744 -5.62808,-1.081071 -1.28211,-0.12641 -2.55644,0.192449 -3.8256,0.341582 -1.68658,0.496102 -3.38847,0.983073 -5.01262,1.667598 0.90538,-0.0935 1.88526,-0.798868 2.73679,-0.465605 0.94951,0.384718 -0.36908,1.427146 -0.0248,2.228805 -0.0532,0.93641 -0.14153,1.965257 0.39378,2.787943 0.21446,0.305065 0.65199,0.676442 0.94619,1.019576 h -6.73757 V 51.44096 l 5.00021,5.000212 h 63.99971 l 5.00021,-5.000213 V 26.440935 l -5.52575,1e-6 c 0.2708,-0.395031 0.51324,-0.810059 0.72398,-1.243336 1.61839,-3.153973 0.75089,-7.068512 -1.37511,-9.762195 -3.31171,-4.087474 -8.74713,-5.9852831 -13.90303,-5.8761261 z" />
    <path
       style="display:inline;fill:none;stroke:#000000;stroke-width:0.771102;stroke-dasharray:none"
       d="m 142.93636,41.441122 h 43.99999 v 0 0"
       id="path1-6-8"
       inkscape:label="slot" />
    <path
       id="path720-0-0-1-1"
       style="display:inline;fill:none;fill-opacity:1;stroke:#000000;stroke-width:0.5;stroke-dasharray:none;stroke-opacity:1"
       d="m 186.93635,51.441118 h 15 v 0 0 m -74,4e-6 15,-3e-6 v 0 0"
       inkscape:label="join" />
  </g>
  <g
     inkscape:label="pop 2"
     inkscape:groupmode="layer"
     id="layer1-9"
     style="display:inline"
     transform="translate(-1.3137964,-1.0673788)">
    <path
       id="path636"
       style="baseline-shift:baseline;display:inline;overflow:visible;fill:none;stroke:#00ff00;stroke-width:0.45;stroke-dasharray:none;stroke-opacity:1;enable-background:accumulate;stop-color:#000000"
       d="m 120.39576,65.411768 c -0.12803,0.123768 -0.2451,0.256969 -0.34649,0.404125 -0.0869,0.195956 -0.0929,0.34539 -0.0493,0.470204 0.0442,0.126591 0.14252,0.234835 0.27207,0.334863 0.25646,0.198014 0.62959,0.352317 0.88507,0.572058 0.90985,0.584297 1.9037,1.061218 2.89191,1.499443 2.39888,0.584011 4.74074,1.398555 7.18701,1.687804 l -0.003,4.71e-4 c 0.18477,0.01677 0.33358,0.09634 0.45439,0.205566 0.12081,0.109227 0.21665,0.247534 0.30742,0.388813 0.18155,0.282557 0.34531,0.574551 0.6088,0.702283 l 0.005,0.0014 0.003,0.0028 c 0.88883,0.588038 1.77752,1.17604 2.66635,1.764078 0.22227,0.03644 0.37616,0.0063 0.48741,-0.0679 0.11299,-0.07533 0.18899,-0.198384 0.24092,-0.353932 0.10386,-0.311091 0.10192,-0.741102 0.12464,-1.086911 l 9.5e-4,-0.0098 0.003,-0.0098 c 0.0941,-0.266474 0.0128,-0.465874 -0.13302,-0.671586 -0.14585,-0.205713 -0.35826,-0.403108 -0.50136,-0.63345 l -0.0633,-0.101854 0.11953,-0.0033 c 2.12335,-0.07043 4.23659,-0.338832 6.35589,-0.513923 l 10e-4,4.72e-4 0.001,-9.26e-4 c 1.05772,-0.04427 2.13982,0.256698 3.11097,-0.0986 0.30047,-0.202314 0.66616,-0.376644 0.97343,-0.593452 0.13835,-0.09762 0.26425,-0.202667 0.36789,-0.321841 0.0323,-0.03714 0.062,-0.07574 0.0898,-0.115808 0.0832,-0.120185 0.1448,-0.25441 0.17673,-0.407881 l 0.001,-0.0037 0.002,-0.0051 c 0.11184,-0.313419 0.36035,-0.516499 0.62648,-0.69112 0.16571,-0.108737 0.33966,-0.20822 0.49671,-0.31533 0.0476,-0.03245 0.0934,-0.06562 0.1372,-0.09999 0.0438,-0.03437 0.0855,-0.06972 0.12418,-0.10697 l 0.0107,-0.01023 0.0144,-0.0047 c 0.0738,-0.02628 0.11233,-0.05742 0.13208,-0.08557 0.002,-0.0035 0.005,-0.0072 0.007,-0.0107 0.004,-0.0071 0.007,-0.0143 0.01,-0.02187 0.006,-0.0189 0.007,-0.03974 0.004,-0.06557 -0.0113,-0.0827 -0.0825,-0.203088 -0.16464,-0.325562 -0.0821,-0.122474 -0.17323,-0.246524 -0.21906,-0.369279 -0.0229,-0.06138 -0.0353,-0.125772 -0.0186,-0.189291 0.0167,-0.06352 0.0656,-0.118214 0.13487,-0.153944 l 0.001,-4.35e-4 0.002,-0.0023 c 0.60995,-0.262651 1.2273,-0.611161 1.94684,-0.461462 2.1616,-0.0099 4.29539,0.329841 6.43217,0.535316 0.26593,-0.09367 0.50172,-0.200907 0.63252,-0.348351 0.0796,-0.08978 0.12727,-0.192599 0.1263,-0.326968"
       inkscape:label="fill2" />
    <path
       id="path620"
       style="display:inline;fill:#ff0000;fill-opacity:1;stroke:none;stroke-width:0.137913;stroke-dasharray:none"
       d="m 153.44705,65.823652 -0.95278,-7.467884 c -0.058,0.041 -0.11532,0.08297 -0.1719,0.126005 -1e-4,7.1e-5 -2.1e-4,1.16e-4 -3e-4,2.01e-4 l -0.54188,0.472009 c -0.0375,0.03762 -0.0745,0.07597 -0.11092,0.115086 -0.77872,0.713197 -1.58213,1.397671 -2.39697,2.068968 l 0.11319,4.433139 c 0.16082,-0.01373 0.32556,-0.0064 0.49579,0.03024 1.19397,-0.0056 2.38073,0.09573 3.56577,0.222234 z m -5.7334,-3.646506 -0.36124,-1.387316 -2.29197,-0.572361 0.61779,2.532511 z m -2.44025,3.770868 -0.0744,-1.036828 -1.62329,-0.158496 0.0557,0.382485 0.157,0.997532 z m -1.41438,-3.282831 -0.0206,-0.984339 -1.87032,-0.286082 -0.20765,1.004965 0.72208,0.635388 z m -1.98401,4.392544 -4.1576,0.452962 -2.05074,-0.650834 0.19317,-1.07619 0.86206,-0.32537 0.15069,-0.785827 -3.10289,-0.219323 -2.4231,0.141786 -0.0887,-0.275344 4.78075,-0.32197 0.82155,-1.191003 -1.9552,-0.533273 -4.36203,0.907882 0.48926,-1.377508 -1.23809,-0.368937 -1.19528,-0.397046 c -0.0282,0.0088 -0.057,0.01569 -0.0851,0.0247 -0.43728,0.139994 -0.86989,0.295412 -1.29237,0.484031 -0.46276,0.146553 -0.91104,0.324345 -1.34996,0.522345 -1.31675,0.593988 -2.54914,1.370318 -3.8348,2.034064 -0.34048,0.279849 -0.72696,0.516019 -1.09116,0.773919 -1e-5,1.1e-5 0,5.6e-5 -2e-5,7e-5 -0.18208,0.128937 -0.35864,0.263254 -0.52102,0.411195 -1e-5,1.1e-5 0,4.9e-5 -2e-5,6.4e-5 -0.16239,0.147954 -0.31063,0.309495 -0.43622,0.492778 -0.0479,0.105836 -0.0736,0.201613 -0.0812,0.288979 -0.002,0.02177 -0.003,0.04321 -0.002,0.06401 7.2e-4,0.04167 0.006,0.08124 0.0146,0.119105 0.009,0.03786 0.0216,0.07396 0.0377,0.108464 0.008,0.01726 0.0169,0.03415 0.0266,0.05071 0.01,0.01647 0.0201,0.03257 0.0313,0.04837 2e-5,1.3e-5 6e-5,8e-6 7e-5,2.5e-5 0.0112,0.0158 0.0231,0.03121 0.0357,0.04636 0.0251,0.0303 0.0529,0.05934 0.0829,0.08736 0.008,0.0073 0.0174,0.0144 0.0258,0.02184 0.0724,0.06388 0.1569,0.121914 0.2454,0.177796 0.0152,0.0098 0.0286,0.02037 0.044,0.02988 3e-5,1.6e-5 6e-5,1.2e-5 7e-5,2.6e-5 0.0773,0.0473 0.15759,0.09293 0.23695,0.13866 0.1587,0.09146 0.31375,0.183181 0.43443,0.288652 0.91468,0.587384 1.91117,1.066393 2.90069,1.50521 2.03644,0.495093 4.04025,1.141183 6.10329,1.508783 0.0974,0.01736 0.19521,0.03299 0.29293,0.04895 l 0.96078,-0.486208 1.50085,-0.789268 3.12521,-0.695747 2.67173,0.56261 2.52045,-1.057605 z m -0.11149,-1.548138 -0.74349,-0.977829 -2.81822,0.109503 -0.70294,0.98332 0.77245,1.042175 2.57967,-0.08769 z m -1.19273,-2.007453 -0.4313,-0.74152 -1.19002,0.02997 -0.20478,0.722595 0.2636,0.369547 z m -0.44383,-1.56059 -0.46489,-0.624972 -1.48844,0.08425 0.79459,0.607735 z m -4.12007,10.356586 -0.53932,-1.161189 -1.25494,-1.193219 -1.66843,1.031403 2.82061,1.867593 z m 3.52243,-12.231177 -0.13621,-0.821295 -1.10201,0.363752 -0.50613,0.903811 0.85023,0.238729 z m -3.49208,1.473674 -0.19345,-0.768067 -1.71675,0.250592 0.68976,0.51054 z"
       inkscape:label="fill" />
    <path
       id="rect619"
       style="display:inline;fill:none;stroke:#000000;stroke-width:0.5;stroke-dasharray:none"
       inkscape:label="cut"
       d="m 154.79236,57.267018 c -0.0572,0.0021 -0.11414,0.0091 -0.17053,0.02067 -0.23239,0.04757 -0.46107,0.166437 -0.68833,0.326595 l -0.004,0.0041 -0.005,0.0026 c -0.81527,0.392419 -1.58829,0.834 -2.204,1.494999 l -0.002,0.0021 -0.003,0.0026 c -0.8441,0.773083 -1.71654,1.511252 -2.60088,2.236039 l -0.0501,0.04186 -0.0444,-0.04857 c -0.27174,-0.296593 -0.50074,-0.638306 -0.76217,-0.925057 -0.26144,-0.28675 -0.55171,-0.516628 -0.95033,-0.60358 l -0.006,-0.0026 -0.007,-0.0026 c -0.80639,-0.355625 -1.60148,-0.73041 -2.43913,-0.958081 -0.27922,-0.07589 -0.56296,-0.135596 -0.8537,-0.172599 l -0.0114,-10e-4 -0.009,-0.0052 c -0.26074,-0.122288 -0.50272,-0.124879 -0.74672,-0.06563 -0.244,0.05925 -0.48824,0.182421 -0.73536,0.312643 l -0.0207,0.01188 -0.0253,-0.0047 c -2.0156,-0.412168 -4.0897,-1.061933 -6.17481,-0.783414 l -0.003,5.16e-4 -0.003,5.17e-4 c -0.95364,0.03921 -1.90469,0.08979 -2.62155,0.737423 l -0.002,0.0036 -0.004,0.0031 c -0.5863,0.39835 -1.24319,0.687325 -1.56321,1.314131 l -0.0145,0.02842 -0.0305,0.0078 c -1.62347,0.386267 -3.26607,0.685082 -4.78679,1.363741 l -0.003,10e-4 -0.004,0.0021 c -1.8384,0.582223 -3.45476,1.663425 -5.17333,2.550748 l -5.1e-4,0.001 c -0.55993,0.457475 -1.22476,0.797555 -1.71463,1.28881 H 85.769697 v 19.999813 l 5.00021,5.000212 h 63.999713 l 5.00021,-5.000211 V 65.453081 h -2.69854 c 0.0114,-0.102777 -0.008,-0.224862 -0.0682,-0.376721 l -0.003,-0.0093 -0.002,-0.0093 c -0.12447,-1.16316 -0.0493,-2.35019 -0.5426,-3.407028 l -0.003,-0.0062 -0.001,-0.0062 c -0.0683,-0.285065 -0.222,-0.581455 -0.31368,-0.887284 -0.0888,-0.296121 -0.11497,-0.610952 0.0687,-0.918807 l -0.88107,-2.445334 c -0.18562,-0.08916 -0.36166,-0.126275 -0.5333,-0.119889 z" />
    <path
       style="display:inline;fill:none;stroke:#000000;stroke-width:0.771102;stroke-dasharray:none"
       d="m 100.7697,75.453142 h 44 v 0 0"
       id="path1-6"
       inkscape:label="join" />
    <path
       id="path720-0-0-1"
       style="display:inline;fill:none;fill-opacity:1;stroke:#000000;stroke-width:0.5;stroke-dasharray:none;stroke-opacity:1"
       d="m 144.7697,85.45314 h 15 v 0 0 m -73.999993,4e-6 14.999993,-3e-6 v 0 0"
       inkscape:label="join" />
  </g>
  <g
     inkscape:groupmode="layer"
     id="layer2"
     inkscape:label="base">
    <g
       id="g718"
       inkscape:label="cut"
       style="display:inline"
       transform="translate(5.2499996,58.249997)">
      <path
         id="rect716"
         style="display:inline;fill:none;fill-opacity:1;stroke:#000000;stroke-width:0.499999;stroke-dasharray:none;stroke-opacity:1"
         inkscape:label="card"
         d="M -0.00019084349 -53.499899 L -0.00019084349 -1.4999726 L 0.00084268516 -1.4999726 L 0.00084268516 0.00019424349 L -0.00019084349 0.00019424349 L -0.00019084349 52.000121 L 73.999943 52.000121 L 73.999943 0.00019424349 L 73.99891 0.00019424349 L 73.99891 -1.4999726 L 73.999943 -1.4999726 L 73.999943 -53.499899 L -0.00019084349 -53.499899 z " />
      <rect
         style="display:inline;fill:none;fill-opacity:1;stroke:#000000;stroke-width:0.5;stroke-dasharray:none;stroke-opacity:1"
         id="rect618"
         width="43.725807"
         height="7.7016158"
         x="3.9999998"
         y="40"
         inkscape:label="window" />
      <path
         style="display:inline;fill:none;stroke:#000000;stroke-width:0.771102;stroke-dasharray:none"
         d="m 14.999999,42 43.999998,-10e-7 -2e-6,10e-7 v 0"
         id="path1-6-6"
         inkscape:label="join"
         transform="translate(-4.5833334e-8,-53.499998)" />
      <path
         style="display:inline;fill:none;stroke:#000000;stroke-width:0.771102;stroke-dasharray:none"
         d="m 14.999999,6.9999999 43.999998,-7e-7 -2e-6,8e-7 v 0"
         id="path1-6-2"
         inkscape:label="join"
         transform="translate(-1.9054583e-4,1.2197917e-4)" />
      <path
         style="display:inline;fill:none;stroke:#000000;stroke-width:0.771102;stroke-dasharray:none"
         d="m 14.999999,14 43.999998,-10e-7 -2e-6,10e-7 v 0"
         id="path1-6-2-9"
         inkscape:label="join"
         transform="translate(-1.9054583e-4,1.2197917e-4)" />
    </g>
    <g
       id="g716"
       inkscape:label="fill"
       style="display:inline"
       transform="translate(5.2499996,58.249997)">
      <path
         id="rect612"
         d="m 51.433495,41.372301 h 2.150246 v 2.150246 H 51.433495 Z M 67.201966,25.603829 h 2.150247 v 2.150247 h -2.150247 z m -15.768471,0 h 2.150246 v 2.150247 h -2.150246 z m 2.831158,14.334974 h -3.512069 -0.752586 v 0.752586 3.512069 0.752586 h 0.752586 3.512069 0.752586 v -0.752586 -3.512069 -0.752586 z m 0,4.264655 h -3.512069 v -3.512069 h 3.512069 z M 70.033124,24.170332 h -3.512069 -0.752586 v 0.752586 3.512069 0.752586 h 0.752586 3.512069 0.752586 v -0.752586 -3.512069 -0.752586 z m 0,4.264655 h -3.512069 v -3.512069 h 3.512069 z M 54.264653,24.170332 h -3.512069 -0.752586 v 0.752586 3.512069 0.752586 h 0.752586 3.512069 0.752586 v -0.752586 -3.512069 -0.752586 z m 0,4.264655 h -3.512069 v -3.512069 h 3.512069 z m 15.08756,15.804308 h 0.716748 v 0.716749 h -0.716748 z m -1.433498,0 h 0.716749 v 0.716749 h -0.716749 z m -0.716749,0 h 0.716749 v 0.716749 h -0.716749 z m -0.716748,0 h 0.716748 v 0.716749 h -0.716748 z m -1.433498,0 h 0.716749 v 0.716749 H 65.05172 Z m -0.716748,0 h 0.716748 v 0.716749 h -0.716748 z m -5.017241,0 h 0.716749 v 0.716749 h -0.716749 z m -0.716749,0 h 0.716749 v 0.716749 h -0.716749 z m -1.433497,0 h 0.716749 v 0.716749 h -0.716749 z m -1.433497,0 h 0.716748 v 0.716749 h -0.716748 z m 13.618225,-0.716748 h 0.716748 v 0.716748 h -0.716748 z m -4.300493,0 h 0.716749 v 0.716748 H 65.05172 Z m -0.716748,0 h 0.716748 v 0.716748 h -0.716748 z m -0.716749,0 h 0.716749 v 0.716748 h -0.716749 z m -0.716749,0 h 0.716749 v 0.716748 h -0.716749 z m -0.716748,0 h 0.716748 v 0.716748 h -0.716748 z m -2.150246,0 h 0.716748 v 0.716748 H 60.03448 Z m -0.716749,0 h 0.716749 v 0.716748 h -0.716749 z m -2.866995,0 h 0.716749 v 0.716748 h -0.716749 z m 13.618225,-0.716749 h 0.716749 v 0.716749 h -0.716749 z m -1.433497,0 h 0.716749 v 0.716749 h -0.716749 z m -0.716749,0 h 0.716749 v 0.716749 h -0.716749 z m -0.716749,0 h 0.716749 v 0.716749 h -0.716749 z m -2.866994,0 h 0.716748 v 0.716749 h -0.716748 z m -0.716749,0 h 0.716749 v 0.716749 h -0.716749 z m -4.300492,0 h 0.716749 v 0.716749 h -0.716749 z m -1.433497,0 h 0.716748 v 0.716749 h -0.716748 z m -1.433498,0 h 0.716749 v 0.716749 h -0.716749 z m 12.901477,-0.716749 h 0.716748 v 0.716749 h -0.716748 z m -0.716749,0 h 0.716749 v 0.716749 h -0.716749 z m -0.716749,0 h 0.716749 v 0.716749 h -0.716749 z m -0.716749,0 h 0.716749 v 0.716749 h -0.716749 z m -1.433497,0 h 0.716749 v 0.716749 h -0.716749 z m -2.150246,0 h 0.716749 v 0.716749 h -0.716749 z m -2.866995,0 h 0.716749 v 0.716749 h -0.716749 z m -2.150246,0 h 0.716749 v 0.716749 h -0.716749 z m -2.150246,0 h 0.716749 v 0.716749 h -0.716749 z m -0.716748,0 h 0.716748 v 0.716749 h -0.716748 z m 14.334973,-0.716748 h 0.716749 v 0.716748 h -0.716749 z m -2.866995,0 h 0.716749 v 0.716748 h -0.716749 z m -0.716748,0 h 0.716748 v 0.716748 h -0.716748 z m -0.716749,0 h 0.716749 v 0.716748 h -0.716749 z m -0.716749,0 h 0.716749 v 0.716748 H 65.05172 Z m -0.716748,0 h 0.716748 v 0.716748 h -0.716748 z m -1.433498,0 h 0.716749 v 0.716748 h -0.716749 z m -0.716748,0 h 0.716748 v 0.716748 h -0.716748 z m -5.017241,0 h 0.716749 v 0.716748 h -0.716749 z m -0.716749,0 h 0.716749 v 0.716748 h -0.716749 z m 13.618225,-0.716749 h 0.716749 v 0.716749 h -0.716749 z m -1.433497,0 h 0.716749 v 0.716749 h -0.716749 z m -0.716749,0 h 0.716749 v 0.716749 h -0.716749 z m -0.716749,0 h 0.716749 v 0.716749 h -0.716749 z m -2.866994,0 h 0.716748 v 0.716749 h -0.716748 z m -1.433498,0 h 0.716749 v 0.716749 h -0.716749 z m -2.866994,0 h 0.716748 v 0.716749 H 60.03448 Z m -1.433498,0 h 0.716749 v 0.716749 h -0.716749 z m -0.716748,0 h 0.716748 v 0.716749 h -0.716748 z m -0.716749,0 h 0.716749 v 0.716749 h -0.716749 z m -1.433497,0 h 0.716748 v 0.716749 h -0.716748 z m 13.618225,-0.716749 h 0.716748 v 0.716749 h -0.716748 z m -2.150247,0 h 0.716749 v 0.716749 h -0.716749 z m -1.433497,0 h 0.716749 v 0.716749 h -0.716749 z m -1.433497,0 h 0.716748 v 0.716749 h -0.716748 z m -2.150246,0 h 0.716748 v 0.716749 h -0.716748 z m -0.716749,0 h 0.716749 v 0.716749 h -0.716749 z m -4.300492,0 h 0.716749 v 0.716749 h -0.716749 z m -0.716749,0 h 0.716749 v 0.716749 h -0.716749 z m 13.618225,-0.716749 h 0.716749 v 0.716749 h -0.716749 z m -0.716748,0 h 0.716748 v 0.716749 h -0.716748 z m -0.716749,0 h 0.716749 v 0.716749 h -0.716749 z m -1.433498,0 h 0.716749 v 0.716749 h -0.716749 z m -2.866994,0 h 0.716748 v 0.716749 h -0.716748 z m -0.716749,0 h 0.716749 v 0.716749 h -0.716749 z m -3.583743,0 h 0.716748 v 0.716749 H 60.03448 Z m -1.433498,0 h 0.716749 v 0.716749 h -0.716749 z m -0.716748,0 h 0.716748 v 0.716749 h -0.716748 z m -1.433498,0 h 0.716749 v 0.716749 h -0.716749 z m -0.716748,0 h 0.716748 v 0.716749 h -0.716748 z m 12.901476,-0.716748 h 0.716749 v 0.716748 h -0.716749 z m -1.433498,0 h 0.716749 v 0.716748 h -0.716749 z m -0.716748,0 h 0.716748 v 0.716748 h -0.716748 z m -0.716749,0 h 0.716749 v 0.716748 h -0.716749 z m -0.716749,0 h 0.716749 v 0.716748 H 65.05172 Z m -0.716748,0 h 0.716748 v 0.716748 h -0.716748 z m -6.450738,0 h 0.716748 v 0.716748 h -0.716748 z m -1.433498,0 h 0.716749 v 0.716748 h -0.716749 z m -2.150246,0 h 0.716749 v 0.716748 H 54.30049 Z m -2.150246,0 h 0.716749 v 0.716748 h -0.716749 z m -0.716749,0 h 0.716749 v 0.716748 h -0.716749 z m -1.433497,0 h 0.716749 v 0.716748 h -0.716749 z m 20.068963,-0.716749 h 0.716749 v 0.716749 h -0.716749 z m -0.716748,0 h 0.716748 v 0.716749 h -0.716748 z m -3.583744,0 h 0.716749 v 0.716749 h -0.716749 z m -2.866995,0 h 0.716749 v 0.716749 h -0.716749 z m -0.716748,0 h 0.716748 v 0.716749 h -0.716748 z m -1.433498,0 h 0.716749 v 0.716749 h -0.716749 z m -0.716748,0 h 0.716748 v 0.716749 H 60.03448 Z m -2.150246,0 h 0.716748 v 0.716749 h -0.716748 z m -0.716749,0 h 0.716749 v 0.716749 h -0.716749 z m -0.716749,0 h 0.716749 v 0.716749 h -0.716749 z m -4.300492,0 h 0.716749 v 0.716749 h -0.716749 z m 17.918717,-0.716749 h 0.716749 v 0.716749 h -0.716749 z m -0.716748,0 h 0.716748 v 0.716749 h -0.716748 z m -2.150247,0 h 0.716749 v 0.716749 h -0.716749 z m -0.716748,0 h 0.716748 v 0.716749 h -0.716748 z m -3.583744,0 h 0.716749 v 0.716749 h -0.716749 z m -1.433497,0 h 0.716749 v 0.716749 h -0.716749 z m -1.433497,0 h 0.716748 v 0.716749 H 60.03448 Z m -2.150246,0 h 0.716748 v 0.716749 h -0.716748 z m -1.433498,0 h 0.716749 v 0.716749 h -0.716749 z m -1.433497,0 h 0.716749 v 0.716749 h -0.716749 z m -0.716749,0 h 0.716749 v 0.716749 H 54.30049 Z m -2.866995,0 h 0.716749 v 0.716749 h -0.716749 z m -1.433497,0 h 0.716749 v 0.716749 H 49.999998 Z M 70.068961,36.35506 h 0.716749 v 0.716748 h -0.716749 z m -2.150246,0 h 0.716749 v 0.716748 h -0.716749 z m -2.150246,0 h 0.716749 v 0.716748 h -0.716749 z m -1.433497,0 h 0.716748 v 0.716748 h -0.716748 z m -2.150246,0 h 0.716748 v 0.716748 h -0.716748 z m -2.150246,0 h 0.716748 v 0.716748 H 60.03448 Z m -0.716749,0 h 0.716749 v 0.716748 h -0.716749 z m -0.716749,0 h 0.716749 v 0.716748 h -0.716749 z m -0.716748,0 h 0.716748 v 0.716748 h -0.716748 z m -1.433498,0 h 0.716749 v 0.716748 h -0.716749 z m -0.716748,0 h 0.716748 v 0.716748 h -0.716748 z m -0.716749,0 h 0.716749 v 0.716748 h -0.716749 z m -2.866995,0 h 0.716749 v 0.716748 h -0.716749 z m 17.201969,-0.716749 h 0.716748 v 0.716749 h -0.716748 z m -4.300493,0 h 0.716749 V 36.35506 H 65.05172 Z m -0.716748,0 h 0.716748 v 0.716749 h -0.716748 z m -2.150246,0 h 0.716748 v 0.716749 h -0.716748 z m -0.716749,0 h 0.716749 v 0.716749 h -0.716749 z m -0.716749,0 h 0.716749 v 0.716749 h -0.716749 z m -1.433497,0 h 0.716749 v 0.716749 h -0.716749 z m -0.716749,0 h 0.716749 v 0.716749 h -0.716749 z m -1.433497,0 h 0.716749 v 0.716749 h -0.716749 z m -2.150246,0 h 0.716749 v 0.716749 h -0.716749 z m -0.716749,0 h 0.716749 V 36.35506 H 54.30049 Z m -1.433497,0 h 0.716748 v 0.716749 h -0.716748 z m -0.716749,0 h 0.716749 v 0.716749 h -0.716749 z m -0.716749,0 h 0.716749 v 0.716749 h -0.716749 z m -1.433497,0 h 0.716749 v 0.716749 h -0.716749 z m 19.352215,-0.716749 h 0.716748 v 0.716749 h -0.716748 z m -1.433498,0 h 0.716749 v 0.716749 h -0.716749 z m -0.716749,0 h 0.716749 v 0.716749 h -0.716749 z m -2.866994,0 h 0.716748 v 0.716749 h -0.716748 z m -2.150246,0 h 0.716748 v 0.716749 h -0.716748 z m -1.433498,0 h 0.716749 v 0.716749 h -0.716749 z m -2.866994,0 h 0.716748 v 0.716749 h -0.716748 z m -2.150246,0 h 0.716748 v 0.716749 h -0.716748 z m -5.017241,0 h 0.716748 v 0.716749 h -0.716748 z m 19.352214,-0.716748 h 0.716749 v 0.716748 h -0.716749 z m -0.716748,0 h 0.716748 v 0.716748 h -0.716748 z m -0.716749,0 h 0.716749 v 0.716748 h -0.716749 z m -0.716749,0 h 0.716749 v 0.716748 h -0.716749 z m -0.716749,0 h 0.716749 v 0.716748 h -0.716749 z m -1.433497,0 h 0.716749 v 0.716748 h -0.716749 z m -0.716749,0 h 0.716749 v 0.716748 H 65.05172 Z m -3.583743,0 h 0.716749 v 0.716748 h -0.716749 z m -1.433497,0 h 0.716748 v 0.716748 H 60.03448 Z m -0.716749,0 h 0.716749 v 0.716748 h -0.716749 z m -2.866995,0 h 0.716749 v 0.716748 h -0.716749 z m -1.433497,0 h 0.716749 v 0.716748 h -0.716749 z m -0.716749,0 h 0.716749 v 0.716748 H 54.30049 Z m -1.433497,0 h 0.716748 v 0.716748 h -0.716748 z m -2.150246,0 h 0.716748 v 0.716748 H 50.716747 Z M 65.05172,33.488065 h 0.716749 v 0.716749 H 65.05172 Z m -0.716748,0 h 0.716748 v 0.716749 h -0.716748 z m -0.716749,0 h 0.716749 v 0.716749 h -0.716749 z m -2.150246,0 h 0.716749 v 0.716749 h -0.716749 z m -1.433497,0 h 0.716748 v 0.716749 H 60.03448 Z m -0.716749,0 h 0.716749 v 0.716749 h -0.716749 z m -0.716749,0 h 0.716749 v 0.716749 h -0.716749 z m -2.866994,0 h 0.716748 v 0.716749 h -0.716748 z m -2.150247,0 h 0.716749 v 0.716749 h -0.716749 z m -0.716748,0 h 0.716748 v 0.716749 h -0.716748 z m -0.716749,0 h 0.716749 v 0.716749 h -0.716749 z m -1.433497,0 h 0.716748 v 0.716749 h -0.716748 z m 19.352214,-0.716749 h 0.716749 v 0.716749 h -0.716749 z m -0.716748,0 h 0.716748 v 0.716749 h -0.716748 z m -1.433498,0 h 0.716749 v 0.716749 h -0.716749 z m -1.433497,0 h 0.716748 v 0.716749 h -0.716748 z m -0.716749,0 h 0.716749 v 0.716749 h -0.716749 z m -0.716749,0 h 0.716749 v 0.716749 H 65.05172 Z m -0.716748,0 h 0.716748 v 0.716749 h -0.716748 z m -1.433498,0 h 0.716749 v 0.716749 h -0.716749 z m -0.716748,0 h 0.716748 v 0.716749 h -0.716748 z m -2.150246,0 h 0.716748 v 0.716749 H 60.03448 Z m -2.150246,0 h 0.716748 v 0.716749 h -0.716748 z m -0.716749,0 h 0.716749 v 0.716749 h -0.716749 z m -2.150246,0 h 0.716749 v 0.716749 h -0.716749 z m -0.716749,0 h 0.716749 v 0.716749 H 54.30049 Z m -0.716749,0 h 0.716749 v 0.716749 h -0.716749 z m -1.433497,0 h 0.716749 v 0.716749 h -0.716749 z m -0.716749,0 h 0.716749 v 0.716749 h -0.716749 z m -0.716748,0 h 0.716748 v 0.716749 h -0.716748 z m -0.716749,0 h 0.716749 v 0.716749 h -0.716749 z m 19.352215,-0.716748 h 0.716748 v 0.716748 h -0.716748 z m -0.716749,0 h 0.716749 v 0.716748 h -0.716749 z m -1.433498,0 h 0.716749 v 0.716748 h -0.716749 z m -5.733989,0 h 0.716749 v 0.716748 h -0.716749 z m -0.716749,0 h 0.716749 v 0.716748 h -0.716749 z m -1.433497,0 h 0.716749 v 0.716748 h -0.716749 z m -2.150246,0 h 0.716749 v 0.716748 h -0.716749 z m -0.716749,0 h 0.716749 v 0.716748 h -0.716749 z m -1.433497,0 h 0.716749 v 0.716748 h -0.716749 z m -1.433498,0 h 0.716749 v 0.716748 h -0.716749 z m -0.716748,0 h 0.716748 v 0.716748 h -0.716748 z m -0.716749,0 h 0.716749 v 0.716748 h -0.716749 z m -1.433497,0 h 0.716748 v 0.716748 h -0.716748 z m 18.635466,-0.716749 h 0.716748 v 0.716749 h -0.716748 z m -0.716749,0 h 0.716749 v 0.716749 h -0.716749 z m -0.716749,0 h 0.716749 v 0.716749 h -0.716749 z m -0.716749,0 h 0.716749 v 0.716749 h -0.716749 z m -0.716748,0 h 0.716748 v 0.716749 h -0.716748 z m -1.433498,0 h 0.716749 v 0.716749 H 65.05172 Z m -1.433497,0 h 0.716749 v 0.716749 h -0.716749 z m -0.716749,0 h 0.716749 v 0.716749 h -0.716749 z m -0.716748,0 h 0.716748 v 0.716749 h -0.716748 z m -0.716749,0 h 0.716749 v 0.716749 h -0.716749 z m -1.433497,0 h 0.716748 v 0.716749 H 60.03448 Z m -0.716749,0 h 0.716749 v 0.716749 h -0.716749 z m -0.716749,0 h 0.716749 v 0.716749 h -0.716749 z m -0.716748,0 h 0.716748 v 0.716749 h -0.716748 z m -0.716749,0 h 0.716749 v 0.716749 h -0.716749 z m -0.716749,0 h 0.716749 v 0.716749 h -0.716749 z m -0.716748,0 h 0.716748 v 0.716749 h -0.716748 z m -1.433498,0 h 0.716749 v 0.716749 H 54.30049 Z m -0.716749,0 h 0.716749 v 0.716749 h -0.716749 z m -3.583743,0 h 0.716749 v 0.716749 H 49.999998 Z M 70.068961,30.62107 h 0.716749 v 0.716749 h -0.716749 z m -2.150246,0 h 0.716749 v 0.716749 h -0.716749 z m -2.150246,0 h 0.716749 v 0.716749 h -0.716749 z m -1.433497,0 h 0.716748 v 0.716749 h -0.716748 z m -2.150246,0 h 0.716748 v 0.716749 h -0.716748 z m -2.866995,0 h 0.716749 v 0.716749 h -0.716749 z m -2.150246,0 h 0.716749 v 0.716749 h -0.716749 z m -2.150246,0 h 0.716749 v 0.716749 h -0.716749 z m -1.433498,0 h 0.716749 v 0.716749 h -0.716749 z m -0.716748,0 h 0.716748 v 0.716749 h -0.716748 z m -0.716749,0 h 0.716749 v 0.716749 h -0.716749 z m -0.716749,0 h 0.716749 v 0.716749 h -0.716749 z m 15.051723,-0.716748 h 0.716748 v 0.716748 h -0.716748 z m -1.433498,0 h 0.716749 V 30.62107 H 65.05172 Z m -1.433497,0 h 0.716749 v 0.716748 h -0.716749 z m -2.150246,0 h 0.716749 v 0.716748 h -0.716749 z m -0.716749,0 h 0.716749 v 0.716748 h -0.716749 z m -0.716748,0 h 0.716748 V 30.62107 H 60.03448 Z m -1.433498,0 h 0.716749 v 0.716748 h -0.716749 z m -0.716748,0 h 0.716748 v 0.716748 h -0.716748 z m -1.433498,0 h 0.716749 v 0.716748 h -0.716749 z m -0.716748,0 h 0.716748 v 0.716748 h -0.716748 z m -1.433498,0 h 0.716749 V 30.62107 H 54.30049 Z m -0.716749,0 h 0.716749 v 0.716748 h -0.716749 z m -1.433497,0 h 0.716749 v 0.716748 h -0.716749 z m -2.150246,0 h 0.716749 v 0.716748 h -0.716749 z m 12.901476,-0.716749 h 0.716749 v 0.716749 h -0.716749 z m -0.716748,0 h 0.716748 v 0.716749 h -0.716748 z m -2.866995,0 h 0.716749 v 0.716749 h -0.716749 z m 5.017241,-0.716749 h 0.716748 v 0.716749 h -0.716748 z m -1.433498,0 h 0.716749 v 0.716749 h -0.716749 z m -1.433497,0 h 0.716749 v 0.716749 h -0.716749 z m -1.433497,0 h 0.716748 v 0.716749 H 60.03448 Z m -1.433498,0 h 0.716749 v 0.716749 h -0.716749 z m -1.433497,0 h 0.716749 v 0.716749 h -0.716749 z m -1.433497,0 h 0.716748 v 0.716749 h -0.716748 z m 7.884235,-0.716748 h 0.716749 v 0.716748 h -0.716749 z m -0.716749,0 h 0.716749 v 0.716748 h -0.716749 z m -1.433497,0 h 0.716749 v 0.716748 h -0.716749 z m -0.716749,0 h 0.716749 v 0.716748 h -0.716749 z m -2.150246,0 h 0.716749 v 0.716748 h -0.716749 z m -0.716748,0 h 0.716748 v 0.716748 h -0.716748 z m -0.716749,0 h 0.716749 v 0.716748 h -0.716749 z m -0.716749,0 h 0.716749 v 0.716748 h -0.716749 z m -0.716748,0 h 0.716748 v 0.716748 h -0.716748 z m 2.866994,-0.716749 h 0.716749 v 0.716749 h -0.716749 z m 5.73399,-0.716749 h 0.716748 v 0.716749 h -0.716748 z m -0.716749,0 h 0.716749 v 0.716749 h -0.716749 z m -0.716749,0 h 0.716749 v 0.716749 h -0.716749 z m -3.583743,0 h 0.716749 v 0.716749 h -0.716749 z m -0.716749,0 h 0.716749 v 0.716749 h -0.716749 z m -0.716748,0 h 0.716748 v 0.716749 h -0.716748 z m -1.433498,0 h 0.716749 v 0.716749 h -0.716749 z m 7.884236,-0.716749 h 0.716748 v 0.716749 h -0.716748 z m -1.433498,0 h 0.716749 v 0.716749 h -0.716749 z m -0.716748,0 h 0.716748 v 0.716749 h -0.716748 z m -1.433498,0 h 0.716749 v 0.716749 h -0.716749 z m -0.716748,0 h 0.716748 v 0.716749 H 60.03448 Z m -2.150246,0 h 0.716748 v 0.716749 h -0.716748 z m 4.300492,-0.716748 h 0.716748 v 0.716748 h -0.716748 z m -0.716749,0 h 0.716749 v 0.716748 h -0.716749 z m -2.866995,0 h 0.716749 v 0.716748 h -0.716749 z m -1.433497,0 h 0.716749 v 0.716748 h -0.716749 z m 6.450738,-0.716749 h 0.716749 v 0.716749 h -0.716749 z m -0.716749,0 h 0.716749 v 0.716749 h -0.716749 z m -0.716748,0 h 0.716748 v 0.716749 h -0.716748 z m -2.150246,0 h 0.716748 v 0.716749 H 60.03448 Z m -1.433498,0 h 0.716749 v 0.716749 h -0.716749 z m -2.150246,0 h 0.716749 v 0.716749 h -0.716749 z"
         style="display:inline;fill:#ff0000;stroke-width:0.0215025"
         inkscape:label="qr" />
      <g
         id="g617"
         transform="translate(-27.331611,-7.0501997)">
        <text
           xml:space="preserve"
           style="font-size:6.75969px;text-align:start;writing-mode:lr-tb;direction:ltr;text-anchor:start;fill:none;stroke:#000000;stroke-width:0.425806;stroke-dasharray:none"
           x="38.499996"
           y="35.734081"
           id="text4"><tspan
             sodipodi:role="line"
             id="tspan4"
             style="fill:#ff0000;stroke:none;stroke-width:0.425806;stroke-dasharray:none"
             x="38.499996"
             y="35.734081">yueyama</tspan></text>
        <text
           xml:space="preserve"
           style="font-size:5.05021px;text-align:start;writing-mode:lr-tb;direction:ltr;text-anchor:start;fill:#ff0000;stroke:none;stroke-width:0.318124;stroke-dasharray:none"
           x="40.707092"
           y="41.83815"
           id="text5"><tspan
             sodipodi:role="line"
             id="tspan5"
             style="stroke-width:0.318124"
             x="40.707092"
             y="41.83815">@emory.edu</tspan></text>
        <path
           id="path6"
           style="fill:none;stroke:#00ff00;stroke-width:0.2;stroke-dasharray:none;stroke-opacity:1"
           d="M 30.500001,33.746466 33.5,36.253534 36.499999,33.746466 Z m -3e-6,1e-6 h 6 v 4 h -6 z" />
      </g>
      <text
         xml:space="preserve"
         style="display:inline;font-size:6.15871px;text-align:start;writing-mode:lr-tb;direction:ltr;text-anchor:start;fill:#ff0000;fill-opacity:1;stroke:#ff0000;stroke-width:0.387949;stroke-dasharray:none;stroke-opacity:1"
         x="5.1939745"
         y="9.7329407"
         id="text617"
         transform="translate(-4.5833334e-8,-53.499998)"><tspan
           sodipodi:role="line"
           id="tspan617"
           style="stroke-width:0.387949"
           x="5.1939745"
           y="9.7329407">Yuigo Ueyama</tspan></text>
    </g>
  </g>
</svg>
